- 
http://www.Speed.Cd
 
http://www.Speed.Cd       the fast  and The Hottest Private Tracker on the net

Please Seed back to make the speed Faster!!
 ............ NFO .............
-[IMG]http://i.imgur.com/phXY6ZC.jpg[/IMG]

Source: DVDR  L-S
 
http://www.imdb.com/title/tt2087720/

The Horror Has Reached Your Neighbourhood

General
Complete name                            : Community 2012 DVDRip x264 AAC-OFFLiNE.mp4
Format                                   : MPEG-4
Format profile                           : Base Media
Codec ID                                 : isom
File size                                : 700 MiB
Duration                                 : 1h 20mn
Overall bit rate mode                    : Variable
Overall bit rate                         : 1 212 Kbps
Encoded date                             : UTC 2013-03-12 12:10:53
Tagged date                              : UTC 2013-03-12 12:10:53

Video
ID                                       : 1
Format                                   : AVC
Format/Info                              : Advanced Video Codec
Format profile                           : High@L4.1
Format settings, CABAC                   : Yes
Format settings, ReFrames                : 3 frames
Codec ID                                 : avc1
Codec ID/Info                            : Advanced Video Coding
Duration                                 : 1h 20mn
Bit rate mode                            : Variable
Bit rate                                 : 1 115 Kbps
Maximum bit rate                         : 40.0 Mbps
Width                                    : 720 pixels
Height                                   : 304 pixels
Display aspect ratio                     : 2.35:1
Frame rate mode                          : Constant
Frame rate                               : 25.000 fps
Color space                              : YUV
Chroma subsampling                       : 4:2:0
Bit depth                                : 8 bits
Scan type                                : Progressive
Bits/(Pixel*Frame)                       : 0.204
Stream size                              : 643 MiB (92%)
Writing library                          : x264 core 130 r2273 b3065e6

Audio
ID                                       : 2
Format                                   : AAC
Format/Info                              : Advanced Audio Codec
Format profile                           : LC
Codec ID                                 : 40
Duration                                 : 1h 20mn
Bit rate mode                            : Variable
Bit rate                                 : 93.5 Kbps
Maximum bit rate                         : 143 Kbps
Channel(s)                               : 2 channels
Channel positions                        : Front: L R
Sampling rate                            : 48.0 KHz
Compression mode                         : Lossy
Stream size                              : 54.0 MiB (8%)
Language                                 : English
Encoded date                             : UTC 2013-03-11 23:23:44
Tagged date                              : UTC 2013-03-12 12:11:25

[IMG]http://i.imgur.com/rhtHGOk.png[/IMG]
[IMG]http://i.imgur.com/TqoKEWX.png[/IMG]
[IMG]http://i.imgur.com/XVEi5Kk.png[/IMG]
[IMG]http://i.imgur.com/BqspDPe.png[/IMG]
[IMG]http://i.imgur.com/z9SeaIL.png[/IMG]
[IMG]http://i.imgur.com/BA0CXDq.png[/IMG]

Greets: To Our Friends